<?xml version="1.0" encoding="UTF-8"?>
<svg xmlns="http://www.w3.org/2000/svg" xmlns:xlink="http://www.w3.org/1999/xlink" viewBox="0 0 96 96" width="96px" height="96px">
<g id="surface71092799">
<path style=" stroke:none;fill-rule:nonzero;fill:rgb(38.039216%,38.039216%,38.039216%);fill-opacity:1;" d="M 55.253906 59.1875 L 59.210938 55.226562 L 76.042969 72.054688 L 72.082031 76.015625 Z M 55.253906 59.1875 "/>
<path style=" stroke:none;fill-rule:nonzero;fill:rgb(38.039216%,38.039216%,38.039216%);fill-opacity:1;" d="M 42.398438 20 C 30.027344 20 20 30.027344 20 42.398438 C 20 54.769531 30.027344 64.800781 42.398438 64.800781 C 54.769531 64.800781 64.800781 54.769531 64.800781 42.398438 C 64.800781 30.027344 54.769531 20 42.398438 20 Z M 42.398438 20 "/>
<path style=" stroke:none;fill-rule:nonzero;fill:rgb(#FFFBF9);fill-opacity:1;" d="M 59.839844 63.878906 L 63.796875 59.917969 L 75.972656 72.09375 L 72.015625 76.054688 Z M 59.839844 63.878906 "/>
<path style=" stroke:none;fill-rule:nonzero;fill:rgb(#FF2A16);fill-opacity:0;" d="M 42.398438 24.199219 C 32.347656 24.199219 24.199219 32.347656 24.199219 42.398438 C 24.199219 52.453125 32.347656 60.601562 42.398438 60.601562 C 52.453125 60.601562 60.601562 52.453125 60.601562 42.398438 C 60.601562 32.347656 52.453125 24.199219 42.398438 24.199219 Z M 42.398438 24.199219 "/>
<path style=" stroke:none;fill-rule:nonzero;fill:rgb(38.039216%,38.039216%,38.039216%);fill-opacity:1;" d="M 52.058594 34.28125 C 49.679688 31.480469 46.179688 29.800781 42.398438 29.800781 C 38.621094 29.800781 35.121094 31.480469 32.738281 34.28125 C 32.179688 34.839844 32.320312 35.820312 32.878906 36.238281 C 33.441406 36.800781 34.421875 36.660156 34.839844 36.101562 C 36.800781 33.859375 39.460938 32.601562 42.398438 32.601562 C 45.339844 32.601562 48 33.859375 49.960938 36.101562 C 50.238281 36.378906 50.660156 36.660156 51.078125 36.660156 C 51.359375 36.660156 51.78125 36.519531 51.921875 36.378906 C 52.480469 35.820312 52.480469 34.839844 52.058594 34.28125 Z M 52.058594 34.28125 "/>
</g>
</svg>
